<?xml version="1.0" encoding="UTF-8" standalone="no"?>
<svg xmlns="http://www.w3.org/2000/svg" version="1.2" baseProfile="tiny" viewBox="0.00 0.00 50.00 50.00" width="50.00" height="50.00">
<g fill="#000000">
<path d="
  M 15.8880 14.1909
  C 15.88 15.15 15.10 15.93 14.1389 15.9218
  L 5.7991 15.8781
  C 4.84 15.87 4.06 15.09 4.0682 14.1290
  L 4.1120 5.7691
  C 4.12 4.81 4.90 4.03 5.8611 4.0382
  L 14.2009 4.0819
  C 15.16 4.09 15.94 4.87 15.9318 5.8310
  L 15.8880 14.1909
  Z"
/>
<path d="
  M 30.8435 14.4594
  C 30.85 15.23 30.23 15.85 29.4608 15.8567
  L 20.5810 15.9032
  C 19.81 15.91 19.19 15.29 19.1837 14.5205
  L 19.1365 5.5006
  C 19.13 4.73 19.75 4.11 20.5192 4.1033
  L 29.3990 4.0568
  C 30.17 4.05 30.79 4.67 30.7963 5.4395
  L 30.8435 14.4594
  Z"
/>
<path d="
  M 45.9625 14.2790
  C 45.97 15.16 45.25 15.88 44.3709 15.8874
  L 35.7511 15.9325
  C 34.87 15.94 34.15 15.22 34.1427 14.3409
  L 34.0975 5.7010
  C 34.09 4.82 34.81 4.10 35.6891 4.0926
  L 44.3089 4.0475
  C 45.19 4.04 45.91 4.76 45.9173 5.6391
  L 45.9625 14.2790
  Z"
/>
<path d="
  M 15.9485 29.0685
  C 15.96 30.07 15.15 30.89 14.1413 30.9012
  L 5.9215 30.9585
  C 4.92 30.97 4.10 30.16 4.0888 29.1513
  L 4.0315 20.9315
  C 4.02 19.93 4.83 19.11 5.8387 19.0988
  L 14.0585 19.0415
  C 15.06 19.03 15.88 19.84 15.8912 20.8487
  L 15.9485 29.0685
  Z"
/>
<path d="
  M 30.9258 29.3285
  C 30.93 30.16 30.27 30.84 29.4415 30.8441
  L 20.7420 30.9352
  C 19.91 30.94 19.24 30.28 19.2264 29.4510
  L 19.1342 20.6515
  C 19.13 19.82 19.79 19.14 20.6185 19.1359
  L 29.3180 19.0448
  C 30.15 19.04 30.82 19.70 30.8336 20.5290
  L 30.9258 29.3285
  Z"
/>
<path d="
  M 45.9521 29.1990
  C 45.96 30.14 45.20 30.91 44.2510 30.9179
  L 35.8512 30.9619
  C 34.91 30.97 34.14 30.21 34.1322 29.2609
  L 34.0879 20.8010
  C 34.08 19.86 34.84 19.09 35.7890 19.0821
  L 44.1888 19.0381
  C 45.13 19.03 45.90 19.79 45.9078 20.7391
  L 45.9521 29.1990
  Z"
/>
<path d="
  M 15.9841 44.0891
  C 15.99 45.11 15.16 45.94 14.1406 45.9456
  L 5.9006 45.9743
  C 4.88 45.98 4.05 45.15 4.0442 44.1308
  L 4.0159 36.0309
  C 4.01 35.01 4.84 34.18 5.8594 34.1744
  L 14.0994 34.1457
  C 15.12 34.14 15.95 34.97 15.9558 35.9892
  L 15.9841 44.0891
  Z"
/>
<path d="
  M 30.9373 44.2496
  C 30.94 45.19 30.17 45.96 29.2303 45.9626
  L 20.7903 45.9774
  C 19.85 45.98 19.08 45.21 19.0773 44.2703
  L 19.0627 35.8904
  C 19.06 34.95 19.83 34.18 20.7697 34.1774
  L 29.2097 34.1626
  C 30.15 34.16 30.92 34.93 30.9227 35.8697
  L 30.9373 44.2496
  Z"
/>
<path d="
  M 45.9844 44.1791
  C 45.99 45.16 45.19 45.96 44.2106 45.9653
  L 35.8307 45.9946
  C 34.85 46.00 34.05 45.20 34.0445 44.2208
  L 34.0156 35.9409
  C 34.01 34.96 34.81 34.16 35.7894 34.1547
  L 44.1693 34.1254
  C 45.15 34.12 45.95 34.92 45.9555 35.8992
  L 45.9844 44.1791
  Z"
/>
</g>
</svg>
