<?xml version="1.0" encoding="UTF-8" standalone="no"?>
<svg xmlns="http://www.w3.org/2000/svg" version="1.2" baseProfile="tiny" viewBox="0.00 0.00 50.00 50.00" width="50.00" height="50.00">
<g fill="#12224e">
<path d="
  M 15.88 14.26
  C 15.88 15.14 15.17 15.85 14.29 15.85
  L 5.69 15.85
  C 4.81 15.85 4.10 15.14 4.10 14.26
  L 4.10 5.68
  C 4.10 4.80 4.81 4.09 5.69 4.09
  L 14.29 4.09
  C 15.17 4.09 15.88 4.80 15.88 5.68
  L 15.88 14.26
  Z"
/>
<path d="
  M 30.8904 14.5587
  C 30.90 15.23 30.35 15.78 29.6810 15.7893
  L 20.4014 15.8703
  C 19.73 15.88 19.18 15.33 19.1708 14.6610
  L 19.0896 5.3613
  C 19.08 4.69 19.63 4.14 20.2990 4.1307
  L 29.5786 4.0497
  C 30.25 4.04 30.80 4.59 30.8092 5.2590
  L 30.8904 14.5587
  Z"
/>
<path d="
  M 45.9526 14.2504
  C 45.95 15.15 45.22 15.87 44.3297 15.8675
  L 35.6897 15.8525
  C 34.80 15.85 34.07 15.12 34.0726 14.2296
  L 34.0874 5.7096
  C 34.09 4.81 34.82 4.09 35.7103 4.0925
  L 44.3503 4.1075
  C 45.24 4.11 45.97 4.84 45.9674 5.7304
  L 45.9526 14.2504
  Z"
/>
<path d="
  M 15.8828 29.1803
  C 15.88 30.16 15.09 30.95 14.1097 30.9472
  L 5.8297 30.9328
  C 4.85 30.93 4.06 30.14 4.0628 29.1597
  L 4.0772 20.8797
  C 4.08 19.90 4.87 19.11 5.8503 19.1128
  L 14.1303 19.1272
  C 15.11 19.13 15.90 19.92 15.8972 20.9003
  L 15.8828 29.1803
  Z"
/>
<path d="
  M 30.9302 29.3188
  C 30.94 30.16 30.26 30.84 29.4208 30.8494
  L 20.7010 30.9103
  C 19.86 30.92 19.18 30.24 19.1704 29.4009
  L 19.1098 20.7212
  C 19.10 19.88 19.78 19.20 20.6192 19.1906
  L 29.3390 19.1297
  C 30.18 19.12 30.86 19.80 30.8696 20.6391
  L 30.9302 29.3188
  Z"
/>
<path d="
  M 45.9770 29.2582
  C 45.98 30.16 45.26 30.90 44.3514 30.9124
  L 35.7917 30.9871
  C 34.89 31.00 34.15 30.27 34.1375 29.3615
  L 34.0630 20.8218
  C 34.06 19.92 34.78 19.18 35.6886 19.1676
  L 44.2483 19.0929
  C 45.15 19.08 45.89 19.81 45.9025 20.7185
  L 45.9770 29.2582
  Z"
/>
<path d="
  M 15.9530 44.0504
  C 15.95 45.11 15.09 45.97 14.0297 45.9671
  L 5.9297 45.9529
  C 4.87 45.95 4.01 45.09 4.0130 44.0296
  L 4.0270 36.0296
  C 4.03 34.97 4.89 34.11 5.9503 34.1129
  L 14.0503 34.1271
  C 15.11 34.13 15.97 34.99 15.9670 36.0504
  L 15.9530 44.0504
  Z"
/>
<path d="
  M 30.9374 44.2596
  C 30.94 45.19 30.18 45.95 29.2503 45.9526
  L 20.7703 45.9674
  C 19.84 45.97 19.08 45.21 19.0774 44.2803
  L 19.0626 35.8204
  C 19.06 34.89 19.82 34.13 20.7497 34.1274
  L 29.2297 34.1126
  C 30.16 34.11 30.92 34.87 30.9226 35.7997
  L 30.9374 44.2596
  Z"
/>
<path d="
  M 45.9821 44.2587
  C 45.99 45.18 45.24 45.93 44.3209 45.9375
  L 35.7410 45.9824
  C 34.82 45.99 34.07 45.24 34.0623 44.3211
  L 34.0179 35.8413
  C 34.01 34.92 34.76 34.17 35.6791 34.1625
  L 44.2590 34.1176
  C 45.18 34.11 45.93 34.86 45.9377 35.7789
  L 45.9821 44.2587
  Z"
/>
</g>
</svg>
