<svg xmlns="http://www.w3.org/2000/svg" xmlns:xlink="http://www.w3.org/1999/xlink" viewBox="0,0,255.99501,255.99501" width="48px" height="48px"><g fill="#fafafa" fill-rule="nonzero" stroke="none" stroke-width="1" stroke-linecap="butt" stroke-linejoin="miter" stroke-miterlimit="10" stroke-dasharray="" stroke-dashoffset="0" font-family="none" font-weight="none" font-size="none" text-anchor="none" style="mix-blend-mode: normal"><g transform="scale(5.33333,5.33333)"><path d="M8,6c-1.64497,0 -3,1.35503 -3,3v2c0,1.64497 1.35503,3 3,3h32c1.64497,0 3,-1.35503 3,-3v-2c0,-1.64497 -1.35503,-3 -3,-3zM8,8h32c0.56503,0 1,0.43497 1,1v2c0,0.56503 -0.43497,1 -1,1h-32c-0.56503,0 -1,-0.43497 -1,-1v-2c0,-0.56503 0.43497,-1 1,-1zM8,20c-1.64497,0 -3,1.35503 -3,3v2c0,1.64497 1.35503,3 3,3h32c1.64497,0 3,-1.35503 3,-3v-2c0,-1.64497 -1.35503,-3 -3,-3zM8,22h32c0.56503,0 1,0.43497 1,1v2c0,0.56503 -0.43497,1 -1,1h-32c-0.56503,0 -1,-0.43497 -1,-1v-2c0,-0.56503 0.43497,-1 1,-1zM8,34c-1.64497,0 -3,1.35503 -3,3v2c0,1.64497 1.35503,3 3,3h32c1.64497,0 3,-1.35503 3,-3v-2c0,-1.64497 -1.35503,-3 -3,-3zM8,36h32c0.56503,0 1,0.43497 1,1v2c0,0.56503 -0.43497,1 -1,1h-32c-0.56503,0 -1,-0.43497 -1,-1v-2c0,-0.56503 0.43497,-1 1,-1z"></path></g></g></svg>