<?xml version="1.0" encoding="UTF-8" standalone="no"?>
<svg xmlns="http://www.w3.org/2000/svg" version="1.2" baseProfile="tiny" viewBox="0.00 0.00 100.00 100.00" width="100.00" height="100.00">
<path fill="#000000" d="
  M 59.84 65.26
  C 62.41 63.75 65.07 62.29 67.80 60.86
  C 70.31 59.55 72.90 59.82 75.15 61.35
  C 79.90 64.60 84.88 67.89 90.11 71.24
  C 96.08 75.06 94.29 79.25 90.68 83.66
  C 87.53 87.50 81.79 94.60 76.60 93.93
  C 65.88 92.53 56.38 86.66 47.99 79.98
  C 36.95 71.19 27.27 61.40 18.94 50.61
  C 12.77 42.61 6.85 32.74 6.06 23.04
  C 5.89 20.90 6.72 18.81 8.56 16.76
  C 12.15 12.76 15.75 9.55 19.38 7.14
  C 21.53 5.71 23.64 5.56 25.72 6.69
  C 26.73 7.24 27.86 8.47 29.09 10.38
  C 34.95 19.42 37.90 23.96 37.94 24.00
  C 40.51 26.61 40.42 30.03 38.74 33.05
  C 37.37 35.51 36.01 37.92 34.66 40.29
  C 34.45 40.66 34.48 41.00 34.74 41.33
  C 41.80 50.25 49.75 58.20 58.58 65.18
  C 58.98 65.49 59.40 65.52 59.84 65.26
  Z"
/>
</svg>
